<?xml version="1.0" encoding="UTF-8" standalone="no"?>
<!-- Created with Inkscape (http://www.inkscape.org/) -->

<svg
   width="43.034824mm"
   height="75.23246mm"
   viewBox="0 0 43.034824 75.23246"
   version="1.1"
   id="svg1"
   xml:space="preserve"
   xmlns="http://www.w3.org/2000/svg"
   xmlns:svg="http://www.w3.org/2000/svg"><defs
     id="defs1" /><g
     id="layer1"
     transform="translate(-121.67655,-157.29194)"><path
       d="m 125.43187,230.0487 c -0.6847,-1.10788 -0.18249,-10.47285 1.11528,-20.81106 1.98018,-15.77021 1.74847,-19.13919 -1.43924,-20.92315 -2.77092,-1.55068 -3.68417,-6.03752 -3.37343,-16.57432 0.319,-10.82735 0.67536,-12.06614 1.42027,-4.94322 0.54676,5.22759 1.99713,9.50471 3.22284,9.50471 1.22578,0 2.67602,-4.27712 3.22284,-9.50471 l 0.99422,-9.50479 0.42606,9.50479 c 0.55178,12.30919 4.89587,12.30919 6.18344,0 0.74512,-7.12292 1.10106,-5.88413 1.42034,4.94322 0.3032,10.27276 -0.6265,15.03715 -3.21666,16.48659 -2.99559,1.67648 -3.22651,5.35282 -1.29978,20.69741 1.28857,10.26234 1.71994,19.66683 0.95851,20.89886 -1.72268,2.78738 -7.96123,2.93345 -9.63476,0.2256 z m 30.18495,-0.37288 c -0.81137,-1.31279 -0.48928,-8.67388 0.7156,-16.35799 1.70931,-10.90027 1.44362,-14.2579 -1.20897,-15.27576 -2.21311,-0.84923 -3.39988,-5.70688 -3.39988,-13.91591 0,-9.81308 1.39197,-14.18907 6.27361,-19.72272 l 6.27361,-7.1115 -0.22775,31.68253 c -0.12501,17.42542 0.0359,32.82318 0.36283,34.21715 1.81809,7.79771 -4.90981,12.76119 -8.78919,6.4842 z"
       style="fill:#e56666;stroke-width:7.1847"
       id="path1-2" /></g></svg>
